<svg xmlns="http://www.w3.org/2000/svg" width="24" height="24" viewBox="0 0 192 192" fill="none" stroke="white" stroke-width="8" stroke-linecap="round" stroke-linejoin="round">
  <circle cx="70" cy="64" r="4" fill="white" stroke="none"/>
  <circle cx="104" cy="64" r="4" fill="white" stroke="none"/>
  <path d="M170 115.24c0-19.305-20.141-35.392-45.044-35.392-24.902 0-45.043 16.087-45.043 35.392 0 19.304 20.141 35.392 45.043 35.392a55.928 55.928 0 0 0 15.122-2.06l17.053 8.494-5.342-13.449A33.588 33.588 0 0 0 170 115.24Z"/>
  <circle cx="107" cy="107" r="4" fill="white" stroke="none"/>
  <circle cx="139" cy="107" r="4" fill="white" stroke="none"/>
  <path d="M128.174 79.978c0-24.903-23.744-45.044-53.087-45.044C45.744 34.934 22 54.946 22 79.849a42.988 42.988 0 0 0 20.784 35.392l-7.915 16.087 18.339-10.489a60.859 60.859 0 0 0 21.878 4.055 62.617 62.617 0 0 0 6.435-.387"/>
</svg>
